<mxfile host="app.diagrams.net" agent="Mozilla/5.0 (Macintosh; Intel Mac OS X 10_15_7) AppleWebKit/537.36 (KHTML, like Gecko) Chrome/134.0.0.0 Safari/537.36" version="26.1.3">
  <diagram name="Page-1" id="OzEsfnNPmb5Dr2YRYola">
    <mxGraphModel dx="1406" dy="891" grid="1" gridSize="10" guides="1" tooltips="1" connect="1" arrows="1" fold="1" page="1" pageScale="1" pageWidth="850" pageHeight="1100" math="0" shadow="0">
      <root>
        <mxCell id="0" />
        <mxCell id="1" parent="0" />
        <mxCell id="D2Z6zz4tuJewYaayQMhZ-1" value="Pre-trained Sentence Encoder" style="rounded=0;whiteSpace=wrap;html=1;fillColor=#ffe6cc;strokeColor=#d79b00;" vertex="1" parent="1">
          <mxGeometry x="140" y="240" width="150" height="90" as="geometry" />
        </mxCell>
        <mxCell id="D2Z6zz4tuJewYaayQMhZ-2" value="" style="rounded=0;whiteSpace=wrap;html=1;fillColor=#dae8fc;strokeColor=#6c8ebf;" vertex="1" parent="1">
          <mxGeometry x="330" y="160" width="20" height="250" as="geometry" />
        </mxCell>
        <mxCell id="D2Z6zz4tuJewYaayQMhZ-3" value="" style="endArrow=classic;html=1;rounded=0;exitX=1;exitY=0.5;exitDx=0;exitDy=0;" edge="1" parent="1" source="D2Z6zz4tuJewYaayQMhZ-1" target="D2Z6zz4tuJewYaayQMhZ-2">
          <mxGeometry width="50" height="50" relative="1" as="geometry">
            <mxPoint x="400" y="350" as="sourcePoint" />
            <mxPoint x="340" y="280" as="targetPoint" />
          </mxGeometry>
        </mxCell>
        <mxCell id="D2Z6zz4tuJewYaayQMhZ-4" value="" style="endArrow=classic;html=1;rounded=0;entryX=0;entryY=0.5;entryDx=0;entryDy=0;" edge="1" parent="1" target="D2Z6zz4tuJewYaayQMhZ-1">
          <mxGeometry width="50" height="50" relative="1" as="geometry">
            <mxPoint x="80" y="285" as="sourcePoint" />
            <mxPoint x="310" y="250" as="targetPoint" />
          </mxGeometry>
        </mxCell>
        <mxCell id="D2Z6zz4tuJewYaayQMhZ-5" value="&quot;A dog with a blue hat&quot;" style="text;html=1;align=center;verticalAlign=middle;whiteSpace=wrap;rounded=0;" vertex="1" parent="1">
          <mxGeometry x="10" y="270" width="60" height="30" as="geometry" />
        </mxCell>
        <mxCell id="D2Z6zz4tuJewYaayQMhZ-6" value="Vector Representation of Text" style="text;html=1;align=center;verticalAlign=middle;whiteSpace=wrap;rounded=0;" vertex="1" parent="1">
          <mxGeometry x="275" y="120" width="130" height="30" as="geometry" />
        </mxCell>
        <mxCell id="D2Z6zz4tuJewYaayQMhZ-7" value="Our Neural Net" style="shape=tape;whiteSpace=wrap;html=1;fillColor=#e1d5e7;strokeColor=#9673a6;" vertex="1" parent="1">
          <mxGeometry x="390" y="220" width="140" height="120" as="geometry" />
        </mxCell>
        <mxCell id="D2Z6zz4tuJewYaayQMhZ-8" value="" style="rounded=0;whiteSpace=wrap;html=1;fillColor=#f8cecc;strokeColor=#b85450;" vertex="1" parent="1">
          <mxGeometry x="580" y="160" width="20" height="250" as="geometry" />
        </mxCell>
        <mxCell id="D2Z6zz4tuJewYaayQMhZ-9" value="Image Query" style="text;html=1;align=center;verticalAlign=middle;whiteSpace=wrap;rounded=0;" vertex="1" parent="1">
          <mxGeometry x="525" y="120" width="130" height="30" as="geometry" />
        </mxCell>
        <mxCell id="D2Z6zz4tuJewYaayQMhZ-10" value="" style="endArrow=classic;html=1;rounded=0;exitX=1;exitY=0.5;exitDx=0;exitDy=0;" edge="1" parent="1" source="D2Z6zz4tuJewYaayQMhZ-2">
          <mxGeometry width="50" height="50" relative="1" as="geometry">
            <mxPoint x="370" y="284.58" as="sourcePoint" />
            <mxPoint x="390" y="285" as="targetPoint" />
          </mxGeometry>
        </mxCell>
        <mxCell id="D2Z6zz4tuJewYaayQMhZ-11" value="" style="endArrow=classic;html=1;rounded=0;exitX=1;exitY=0.5;exitDx=0;exitDy=0;" edge="1" parent="1">
          <mxGeometry width="50" height="50" relative="1" as="geometry">
            <mxPoint x="530" y="284.57" as="sourcePoint" />
            <mxPoint x="580" y="285" as="targetPoint" />
          </mxGeometry>
        </mxCell>
        <mxCell id="D2Z6zz4tuJewYaayQMhZ-17" value="" style="edgeStyle=orthogonalEdgeStyle;rounded=0;orthogonalLoop=1;jettySize=auto;html=1;" edge="1" parent="1" source="D2Z6zz4tuJewYaayQMhZ-13" target="D2Z6zz4tuJewYaayQMhZ-15">
          <mxGeometry relative="1" as="geometry" />
        </mxCell>
        <mxCell id="D2Z6zz4tuJewYaayQMhZ-13" value="" style="shape=image;verticalLabelPosition=bottom;labelBackgroundColor=default;verticalAlign=top;aspect=fixed;imageAspect=0;image=https://images4-a.ravelrycache.com/uploads/LuckyFoxKnits/502380641/BLue_Bobble_Hat_Cover_medium2.jpg;" vertex="1" parent="1">
          <mxGeometry x="1020.01" y="211.61" width="220" height="146.78" as="geometry" />
        </mxCell>
        <mxCell id="D2Z6zz4tuJewYaayQMhZ-14" value="" style="shape=image;verticalLabelPosition=bottom;labelBackgroundColor=default;verticalAlign=top;aspect=fixed;imageAspect=0;image=https://i.etsystatic.com/10692466/r/il/06e9cc/2194876767/il_fullxfull.2194876767_c2rm.jpg;" vertex="1" parent="1">
          <mxGeometry x="1049.28" y="370" width="161.46" height="250" as="geometry" />
        </mxCell>
        <mxCell id="D2Z6zz4tuJewYaayQMhZ-15" value="Pre-trained Image Encoder or Features from VGG19" style="rounded=0;whiteSpace=wrap;html=1;fillColor=#fff2cc;strokeColor=#d6b656;" vertex="1" parent="1">
          <mxGeometry x="820" y="300" width="150" height="90" as="geometry" />
        </mxCell>
        <mxCell id="D2Z6zz4tuJewYaayQMhZ-18" value="" style="endArrow=classic;html=1;rounded=0;exitX=0;exitY=0.5;exitDx=0;exitDy=0;entryX=1.001;entryY=0.775;entryDx=0;entryDy=0;entryPerimeter=0;" edge="1" parent="1" target="D2Z6zz4tuJewYaayQMhZ-15">
          <mxGeometry width="50" height="50" relative="1" as="geometry">
            <mxPoint x="1049.28" y="494.6" as="sourcePoint" />
            <mxPoint x="1000" y="300" as="targetPoint" />
            <Array as="points">
              <mxPoint x="1000" y="495" />
              <mxPoint x="1000" y="370" />
            </Array>
          </mxGeometry>
        </mxCell>
        <mxCell id="D2Z6zz4tuJewYaayQMhZ-19" value="" style="endArrow=classic;html=1;rounded=0;exitX=0;exitY=0.5;exitDx=0;exitDy=0;entryX=1.034;entryY=0.48;entryDx=0;entryDy=0;entryPerimeter=0;" edge="1" parent="1" target="D2Z6zz4tuJewYaayQMhZ-23">
          <mxGeometry width="50" height="50" relative="1" as="geometry">
            <mxPoint x="820" y="344.5" as="sourcePoint" />
            <mxPoint x="800" y="250" as="targetPoint" />
            <Array as="points">
              <mxPoint x="800" y="345" />
              <mxPoint x="800" y="280" />
            </Array>
          </mxGeometry>
        </mxCell>
        <mxCell id="D2Z6zz4tuJewYaayQMhZ-22" value="" style="rounded=0;whiteSpace=wrap;html=1;fillColor=#dae8fc;strokeColor=#6c8ebf;" vertex="1" parent="1">
          <mxGeometry x="750" y="450" width="20" height="250" as="geometry" />
        </mxCell>
        <mxCell id="D2Z6zz4tuJewYaayQMhZ-23" value="" style="rounded=0;whiteSpace=wrap;html=1;fillColor=#d5e8d4;strokeColor=#82b366;" vertex="1" parent="1">
          <mxGeometry x="750" y="160" width="20" height="250" as="geometry" />
        </mxCell>
        <mxCell id="D2Z6zz4tuJewYaayQMhZ-24" value="" style="endArrow=classic;html=1;rounded=0;exitX=0;exitY=0.5;exitDx=0;exitDy=0;entryX=1;entryY=0.5;entryDx=0;entryDy=0;" edge="1" parent="1" target="D2Z6zz4tuJewYaayQMhZ-22">
          <mxGeometry width="50" height="50" relative="1" as="geometry">
            <mxPoint x="820" y="360" as="sourcePoint" />
            <mxPoint x="770" y="360" as="targetPoint" />
            <Array as="points">
              <mxPoint x="800" y="360" />
              <mxPoint x="800" y="575" />
            </Array>
          </mxGeometry>
        </mxCell>
        <mxCell id="D2Z6zz4tuJewYaayQMhZ-25" value="Vector Representation of each Image" style="text;html=1;align=center;verticalAlign=middle;whiteSpace=wrap;rounded=0;" vertex="1" parent="1">
          <mxGeometry x="695" y="120" width="130" height="30" as="geometry" />
        </mxCell>
        <mxCell id="D2Z6zz4tuJewYaayQMhZ-26" value="" style="shape=flexArrow;endArrow=classic;startArrow=classic;html=1;rounded=0;width=76.81818181818181;endSize=7.486363636363635;" edge="1" parent="1">
          <mxGeometry width="100" height="100" relative="1" as="geometry">
            <mxPoint x="610" y="300" as="sourcePoint" />
            <mxPoint x="740" y="300" as="targetPoint" />
          </mxGeometry>
        </mxCell>
        <mxCell id="D2Z6zz4tuJewYaayQMhZ-27" value="Cosine Similarity to&lt;div&gt;find closest image&lt;/div&gt;" style="edgeLabel;html=1;align=center;verticalAlign=middle;resizable=0;points=[];" vertex="1" connectable="0" parent="D2Z6zz4tuJewYaayQMhZ-26">
          <mxGeometry x="0.4238" y="7" relative="1" as="geometry">
            <mxPoint x="-33" y="7" as="offset" />
          </mxGeometry>
        </mxCell>
        <mxCell id="D2Z6zz4tuJewYaayQMhZ-28" value="All images are processed by the pre-trained model" style="text;html=1;align=center;verticalAlign=middle;whiteSpace=wrap;rounded=0;" vertex="1" parent="1">
          <mxGeometry x="832.5" y="250" width="125" height="30" as="geometry" />
        </mxCell>
        <mxCell id="D2Z6zz4tuJewYaayQMhZ-30" value="" style="endArrow=none;dashed=1;html=1;rounded=0;dashPattern=12 12;strokeWidth=3;" edge="1" parent="1">
          <mxGeometry width="50" height="50" relative="1" as="geometry">
            <mxPoint x="759.33" y="920" as="sourcePoint" />
            <mxPoint x="759.33" y="740" as="targetPoint" />
          </mxGeometry>
        </mxCell>
      </root>
    </mxGraphModel>
  </diagram>
</mxfile>
